<?xml version="1.0" encoding="UTF-8" standalone="no"?>
<svg
   xmlns:dc="http://purl.org/dc/elements/1.1/"
   xmlns:cc="http://creativecommons.org/ns#"
   xmlns:rdf="http://www.w3.org/1999/02/22-rdf-syntax-ns#"
   xmlns:svg="http://www.w3.org/2000/svg"
   xmlns="http://www.w3.org/2000/svg"
   xmlns:xlink="http://www.w3.org/1999/xlink"
   xmlns:sodipodi="http://sodipodi.sourceforge.net/DTD/sodipodi-0.dtd"
   xmlns:inkscape="http://www.inkscape.org/namespaces/inkscape"
   viewBox="0 0 266.42352 218.85003"
   width="266.42352"
   height="218.85004"
   version="1.1"
   id="svg3877"
   sodipodi:docname="elephant_ui_iron.svg"
   inkscape:version="0.92.3 (2405546, 2018-03-11)"
   inkscape:export-filename="C:\Users\likea\Pictures\elephant_ui_iron.png"
   inkscape:export-xdpi="479.95999"
   inkscape:export-ydpi="479.95999">
  <metadata
     id="metadata3883">
    <rdf:RDF>
      <cc:Work
         rdf:about="">
        <dc:format>image/svg+xml</dc:format>
        <dc:type
           rdf:resource="http://purl.org/dc/dcmitype/StillImage" />
      </cc:Work>
    </rdf:RDF>
  </metadata>
  <defs
     id="defs3881">
    <linearGradient
       inkscape:collect="always"
       id="linearGradient6468">
      <stop
         style="stop-color:#d3d3d3;stop-opacity:1"
         offset="0"
         id="stop6464" />
      <stop
         style="stop-color:#a2a2a2;stop-opacity:1"
         offset="1"
         id="stop6466" />
    </linearGradient>
    <linearGradient
       inkscape:collect="always"
       id="linearGradient6438">
      <stop
         style="stop-color:#ea93e8;stop-opacity:1;"
         offset="0"
         id="stop6434" />
      <stop
         id="stop6442"
         offset="0.61555791"
         style="stop-color:#ec8fe9;stop-opacity:1" />
      <stop
         style="stop-color:#f1abee;stop-opacity:1"
         offset="0.70115924"
         id="stop6446" />
      <stop
         style="stop-color:#f5c1f3;stop-opacity:1"
         offset="0.85105181"
         id="stop6444" />
      <stop
         style="stop-color:#f3a9f0;stop-opacity:1"
         offset="1"
         id="stop6436" />
    </linearGradient>
    <linearGradient
       inkscape:collect="always"
       id="linearGradient6408">
      <stop
         style="stop-color:#292929;stop-opacity:1"
         offset="0"
         id="stop6404" />
      <stop
         id="stop6416"
         offset="0.44790921"
         style="stop-color:#c2c2c2;stop-opacity:1" />
      <stop
         id="stop6412"
         offset="0.53014296"
         style="stop-color:#c4c4c4;stop-opacity:1" />
      <stop
         style="stop-color:#3d3d3d;stop-opacity:1"
         offset="0.95195252"
         id="stop6414" />
      <stop
         style="stop-color:#171717;stop-opacity:0"
         offset="1"
         id="stop6406" />
    </linearGradient>
    <linearGradient
       inkscape:collect="always"
       xlink:href="#linearGradient6408"
       id="linearGradient6410"
       x1="645.61798"
       y1="852.73669"
       x2="644.70886"
       y2="848.43878"
       gradientUnits="userSpaceOnUse"
       gradientTransform="translate(0.60611166,-0.11020212)" />
    <linearGradient
       inkscape:collect="always"
       xlink:href="#linearGradient6438"
       id="linearGradient6440"
       x1="592.9715"
       y1="866.47913"
       x2="591.25714"
       y2="856.81647"
       gradientUnits="userSpaceOnUse" />
    <linearGradient
       inkscape:collect="always"
       xlink:href="#linearGradient6468"
       id="linearGradient6470"
       x1="656.08722"
       y1="814.52417"
       x2="661.04626"
       y2="835.24213"
       gradientUnits="userSpaceOnUse"
       gradientTransform="translate(-0.44080849,1.3224255)" />
    <linearGradient
       gradientTransform="translate(-395.89999,-806.04996)"
       inkscape:collect="always"
       xlink:href="#linearGradient6438"
       id="linearGradient6440-1"
       x1="592.9715"
       y1="866.47913"
       x2="591.41296"
       y2="857.51776"
       gradientUnits="userSpaceOnUse" />
  </defs>
  <sodipodi:namedview
     pagecolor="#ffffff"
     bordercolor="#666666"
     borderopacity="1"
     objecttolerance="10"
     gridtolerance="10"
     guidetolerance="10"
     inkscape:pageopacity="0"
     inkscape:pageshadow="2"
     inkscape:window-width="2447"
     inkscape:window-height="1417"
     id="namedview3879"
     showgrid="false"
     inkscape:zoom="18.148471"
     inkscape:cx="277.68583"
     inkscape:cy="155.72285"
     inkscape:window-x="1305"
     inkscape:window-y="1072"
     inkscape:window-maximized="1"
     inkscape:current-layer="g3875" />
  <g
     transform="translate(-395.89999,-806.04996)"
     id="g3875">
    <defs
       id="defs3800">
      <path
         id="a"
         d="M 395.89999,745.09998 H 690.5 V 1024.9 H 395.89999 Z"
         inkscape:connector-curvature="0" />
    </defs>
    <clipPath
       id="b">
      <use
         xlink:href="#a"
         width="100%"
         height="100%"
         overflow="visible"
         id="use3802"
         style="overflow:visible"
         x="0"
         y="0" />
    </clipPath>
    <path
       style="fill:#666666;stroke:#000000;stroke-width:1.45511806;stroke-linecap:butt;stroke-linejoin:miter;stroke-miterlimit:4;stroke-dasharray:none;stroke-opacity:1"
       d="m 592.06865,861.37232 c -0.62339,0 -5.1965,0.87053 -5.1965,0.87053 l -2.26742,1.18606 c -16.91677,3.64086 -19.8123,8.46925 -26.08178,18.35173 -3.13873,5.11369 -3.91863,10.61899 -1.99019,18.70655 2.41971,6.60898 2.00761,9.88364 -0.50812,17.08018 l 3.35709,0.79779 c 1.61833,-6.55416 3.12553,-9.67308 0.2726,-18.33406 -1.59632,-5.96217 -1.8057,-11.19475 1.24412,-16.4041 7.46609,-12.09815 10.7621,-13.9336 24.33066,-17.55175 l 2.04594,0.42911 5.54057,-1.02879 z"
       id="path6508"
       inkscape:connector-curvature="0"
       sodipodi:nodetypes="ccccccccccccc" />
    <path
       style="fill:url(#linearGradient6440);fill-opacity:1;stroke:#000000;stroke-width:2.19212598;stroke-linecap:butt;stroke-linejoin:miter;stroke-miterlimit:4;stroke-dasharray:none;stroke-opacity:1"
       d="m 592.97148,866.47912 35.3778,-6.38982 1.71434,-2.64944 -1.52898,-7.41506 -37.27751,6.79166 z"
       id="path4697"
       inkscape:connector-curvature="0"
       sodipodi:nodetypes="cccccc" />
    <path
       class="st53"
       d="m 339.3,1028.6 c 1.5,-3.2 14.4,-31.3 27.4,-58.8 -6,-9.3 -2,-17 1.5,-23.7 1.9,-3.7 3.8,-7.1 3.6,-10.4 -0.8,-22 8.1,-38.3 22.8,-41.6 2.8,-0.6 5.2,-0.9 7.5,-0.9 3,0 5.6,0.5 8.1,1.6 1.4,-1.3 2.8,-2.6 4.2,-3.8 -2.8,-2.6 -4.3,-5.5 -4.5,-8.8 -0.3,-4.5 2.2,-9.5 6.8,-13.7 5.3,-4.8 16.5,-12.9 31.7,-12.9 0.9,0 1.7,0 2.6,0.1 -0.4,-0.9 -1,-2 -2.1,-2.9 -2.1,-1.6 -1.9,-3.2 -1.6,-4 0.7,-2.1 3.6,-3.2 8.1,-3.2 3.9,0 9.7,1.2 14,4.4 0.3,-0.7 0.7,-1.3 1.3,-1.7 0.5,-0.3 1.3,-0.5 2.2,-0.5 3.4,0 10.6,2.7 15.5,9.9 3.6,5.3 3.6,10.8 0.1,16 18.3,4.7 30.1,15.6 39.5,24.4 2.5,2.4 5,4.6 7.3,6.5 10.7,8.9 21.4,13.2 32.7,13.2 0.9,0 1.8,0 2.7,-0.1 2,-13.5 -4.1,-25.5 -10,-35.7 -6.2,-10.7 -6.4,-12.1 -4.9,-13.9 l 0.1,-0.1 c 0.6,-0.7 1.3,-1 2.1,-1.1 h 0.3 c 1.7,0 4.5,1 13,8.7 9.9,9 16.9,22.2 19.2,36.5 8.9,-4.9 15.2,-12.5 17.1,-20.3 2,-8.6 0.24674,-17.61821 -4.45326,-23.51821 l -2.06936,-4.56632 c 3.91352,-2.77023 6.05546,-3.12155 13.4459,-1.21842 4.73809,-3.51593 8.4604,-4.16262 13.09605,-3.34597 C 629.44382,861.16946 628.3,864.6 626.5,867.9 c -1.1,1.9 -2.5,6.2 0.4,13.3 3.7,8.9 3.5,29.2 -8.3,46.2 -8.1,11.7 -18.3,23 -37.6,26.6 -3,4.6 -6.5,9 -10.2,12.6 -7.8,7.6 -24,15.3 -42.3,15.3 -5.3,0 -10.7,-0.6 -15.9,-1.9 -7.6,12.9 -10.5,26.2 -10.6,32.1 -0.2,11 0.9,16.1 0.9,16.2 l 0.4,1.8 -164.9,0.8 z"
       clip-path="url(#b)"
       id="path3805"
       inkscape:connector-curvature="0"
       sodipodi:nodetypes="cccccsccccscccsccsccccscccccsccccccccccccscccccc" />
    <path
       class="st53"
       d="m 339.8,1028.8 c 0.1,-0.3 13.9,-30.1 27.5,-59.1 -6.1,-9.2 -2.1,-16.8 1.4,-23.5 2,-3.7 3.8,-7.3 3.7,-10.6 -0.8,-21.7 8,-37.9 22.4,-41 2.7,-0.6 5.1,-0.9 7.4,-0.9 3,0 5.7,0.5 8.2,1.7 1.6,-1.6 3.2,-3 4.9,-4.4 -3,-2.6 -4.6,-5.5 -4.8,-8.8 -0.3,-4.4 2.1,-9.2 6.6,-13.3 5.3,-4.8 16.4,-12.8 31.4,-12.8 1.1,0 2.2,0 3.3,0.1 -0.3,-1.1 -1,-2.7 -2.5,-3.8 -1.8,-1.4 -1.7,-2.8 -1.5,-3.4 0.6,-1.8 3.4,-2.9 7.6,-2.9 4.4,0 10.3,1.5 14.3,4.8 0.1,-0.9 0.6,-1.7 1.3,-2.1 0.4,-0.3 1.1,-0.4 1.9,-0.4 3.3,0 10.3,2.6 15.1,9.7 3.6,5.3 3.5,10.9 -0.3,16.1 18.6,4.6 30.5,15.6 40,24.4 2.6,2.4 5,4.6 7.3,6.5 10.8,8.9 21.6,13.3 33.1,13.3 1,0 2.1,0 3.1,-0.1 2.2,-13.9 -4,-26.1 -10,-36.4 -6.3,-10.9 -6.2,-11.8 -5,-13.3 l 0.1,-0.1 c 0.2,-0.2 0.7,-0.9 1.8,-0.9 h 0.2 c 1.5,0 4.2,1 12.7,8.6 10,9.1 17,22.5 19.2,36.9 9.3,-5 16,-12.8 17.9,-20.9 2.1,-8.9 0.4,-17.4 -4.5,-23.4 -2.54518,-2.84633 -4.03423,-4.35428 -4.01262,-6.44837 0.0202,-1.96136 0.90283,-2.64751 2.83288,-3.43255 4.59438,-1.01115 7.8382,1.08145 12.72642,3.57797 3.37358,-1.65386 8.23308,-7.09414 11.7884,-5.88985 1.68367,2.497 4.26356,1.08921 1.52474,10.12393 -1.1,2 -4.85982,7.56887 -1.85982,14.86887 3.6,8.8 3.4,28.8 -8.2,45.7 -8.1,11.7 -18.2,22.9 -37.5,26.4 -3,4.7 -6.5,9.1 -10.3,12.7 -7.8,7.5 -23.7,15.1 -42,15.1 -5.4,0 -10.9,-0.7 -16.1,-2 -7.7,13.1 -10.7,26.7 -10.9,32.7 -0.2,11.1 0.9,16.2 0.9,16.3 l 0.3,1.2 -163.5,0.8 z"
       clip-path="url(#b)"
       id="path3807"
       inkscape:connector-curvature="0"
       sodipodi:nodetypes="cccccsccccsccssccsccccscccsssccccsccccccccscccccc" />
    <path
       class="st58"
       d="m 388.5,927.9 c 20,-40 49.9,-56.3 83.4,-54.9 33.6,1.4 48.8,21.7 62.4,32.9 13.6,11.2 27.5,15.6 43.4,12.5 15.9,-3.1 28.5,-14.6 31.2,-26.1 2.7,-11.5 -1,-20.7 -6.1,-25.8 -5.1,-5.1 -1.38622,-8.18265 4.11378,-6.88265 5.4,1.4 8.00259,3.41948 8.00259,3.41948 0,0 7.88363,-6.33683 9.88363,-3.63683 2,2.7 1.7,5.4 0.3,7.8 -1.4,2.4 -2.7,7.1 0.3,14.6 3.1,7.5 4.1,27.1 -8.1,44.8 -12.2,17.6 -26.5,30.1 -62.1,26.5 -38.5,-3.9 -54.6,44.2 -54.9,59 -0.2,11.5 0.9,16.5 0.9,16.5 l -160.7,0.8 c 0.2,-0.1 33.4,-72.4 48,-101.5 z"
       clip-path="url(#b)"
       stroke-miterlimit="10"
       id="path3817"
       inkscape:connector-curvature="0"
       style="fill:#53606c;stroke:#000000;stroke-linecap:round;stroke-linejoin:round;stroke-miterlimit:10"
       sodipodi:nodetypes="ccssssccssccccccc" />
    <path
       class="st59"
       d="m 399.4,989.3 c -6.1,0 -9.9,-4.3 -10,-4.3 l -0.2,-0.2 -0.3,0.1 c -3.1,1 -6.1,1.5 -9,1.5 -6.1,0 -11.4,-2.2 -15.6,-6.5 1.4,-3 2.9,-6.1 4.3,-9.1 0.1,0.1 0.1,0.2 0.2,0.3 6.1,8 12.7,9.7 17,9.7 3.2,0 5.6,-0.9 6.6,-1.3 0.7,1.3 3,4.7 7.5,4.7 1.2,0 2.5,-0.3 3.9,-0.8 6.7,-2.5 15.7,-13.1 18.3,-22.1 3.2,5.7 -2.8,18.3 -13.8,25.3 -3,1.7 -6,2.7 -8.9,2.7 z m 24.5,-78.1 c -5.7,-11.1 -10.8,-14.2 -12.4,-14.9 15.7,-15.3 34.7,-23 56.6,-23 1.3,0 2.5,0 3.8,0.1 2.1,0.1 4.2,0.3 6.4,0.5 1.5,2.7 -0.4,5.6 -0.8,6.3 -3,0.8 -11.2,6.5 -18.5,11.6 -1.9,1.3 -3.7,2.6 -5.3,3.7 -5.3,3.7 -13.6,4.2 -18,4.2 -1.8,0 -2.9,-0.1 -2.9,-0.1 h -0.3 z m 95.3,49 c 4.2,-7.1 12.6,-15.2 28.3,-15.2 3.5,0 7.2,0.4 11,1.2 3.4,0.7 7,1.1 10.6,1.1 15.9,0 29.8,-7.9 34.8,-12.5 6.5,-6 10.5,-9.8 12,-12.4 1.4,-2.4 3.2,-2.8 4.7,-2 0.1,0.1 -0.7,1.1 -0.6,1.1 -0.9,1.7 -1.9,3.3 -3,4.8 -11.5,16.6 -23.9,26.9 -50,26.9 -3.6,0 -7.5,-0.2 -11.6,-0.6 -1.5,-0.2 -3,-0.2 -4.4,-0.2 -9.4,0 -18.1,3.2 -25.9,9.4 z"
       clip-path="url(#b)"
       id="path3819"
       inkscape:connector-curvature="0"
       style="fill:#38434f" />
    <path
       class="st58"
       d="m 427.4,920.5 c -9.1,-24.2 -19,-27.9 -32.4,-25 -13.4,3 -22.4,18 -21.6,40 0.4,10.2 -15.5,20.5 -4.3,35 11.2,14.5 23.5,8 23.5,8 0,0 3,7.1 11,4.1 8,-3 16.7,-13.5 18.5,-21.6"
       clip-path="url(#b)"
       stroke-miterlimit="10"
       id="path3821"
       inkscape:connector-curvature="0"
       style="fill:#53606c;stroke:#000000;stroke-linecap:round;stroke-linejoin:round;stroke-miterlimit:10" />
    <path
       class="st59"
       d="m 417.2,934.2 c -7.3,0.5 -8.6,-4.8 -7.3,-7 1.2,-2.1 4.6,-3.2 4.6,-3.2 0,0 -5.3,-0.2 -6.3,-4 -1,-3.7 4,-5.3 4,-5.3 0,0 -2.9,-8.6 -13.3,-6.1 -10.4,2.5 -14.4,11.7 -14.2,19 0.6,15.3 -10.2,22.8 0,29.7 10.1,6.9 23.7,-2.8 28.5,-11.3 4.8,-8.5 4,-11.8 4,-11.8 z"
       clip-path="url(#b)"
       id="path3823"
       inkscape:connector-curvature="0"
       style="fill:#38434f" />
    <path
       class="st57"
       d="m 392.6,978.6 c 6.3,-3.9 9.1,-7.5 9.1,-7.5 m 15.5,-36.9 c -7.3,0.5 -8.6,-4.8 -7.3,-7 1.2,-2.1 4.6,-3.2 4.6,-3.2 0,0 -5.3,-0.2 -6.3,-4 -1,-3.7 4,-5.3 4,-5.3 0,0 -2.9,-8.6 -13.3,-6.1 -10.4,2.5 -14.6,11.7 -14.2,19"
       clip-path="url(#b)"
       stroke-miterlimit="10"
       id="path3825"
       inkscape:connector-curvature="0"
       style="fill:none;stroke:#000000;stroke-linecap:round;stroke-linejoin:round;stroke-miterlimit:10" />
    <path
       d="m 417.5,891.4 c -9.8,-6.9 -6.2,-16 0.3,-21.8 6.5,-5.8 19,-14 35.2,-12.2 0,0 -0.2,-3.5 -3.1,-5.8 -2.9,-2.3 -0.5,-4.5 5.5,-4.5 6,0 12.9,2.6 15.8,6.9 0,0 -1.4,-3.2 0.4,-4.4 1.8,-1.2 10.2,1 15.6,9 5.4,8 1.1,14.9 -5.2,19.9 -6.3,5 -36.2,11.6 -48.8,10.9"
       clip-path="url(#b)"
       id="path3827"
       inkscape:connector-curvature="0"
       style="fill:#53606c" />
    <g
       class="st53"
       clip-path="url(#b)"
       id="g3831">
      <path
         class="st36"
         d="m 459.5,878.7 c -11.1,0.6 -22.1,3.3 -32.9,6.1 -4.1,1.1 -8.2,2.2 -12.4,2 -0.4,0 -0.8,-0.1 -1.3,-0.1 1,1.6 2.5,3.2 4.6,4.7 l 15.6,-2.1 c 11.3,0.7 37,-4.7 46.4,-9.4 -6.5,-1.1 -13.3,-1.5 -20,-1.2 z"
         id="path3829"
         inkscape:connector-curvature="0"
         style="fill:#38434f" />
    </g>
    <path
       class="st59"
       d="m 417.5,890.8 c -3.5,-2.5 -5.3,-5.5 -5.5,-8.8 -0.2,-3.2 1.2,-6.7 4,-9.9 -0.4,1.6 -0.2,3.2 0.5,4.7 1.2,2.5 3.6,4 6.3,4 2.1,0 4.3,-0.9 6.3,-2.6 7.2,-6 19.4,-10.4 29.1,-10.4 1.9,0 3.7,0.2 5.3,0.5 7.7,1.6 12.3,3.7 13.8,6.7 0.8,1.6 0.8,3.3 0,5.4 -10.1,4.3 -31.2,8.6 -42.1,8.6 -0.7,0 -1.4,0 -2.1,-0.1 -1.4,-0.1 -2.8,-0.1 -4,-0.1 -7.5,-0.1 -10.6,1.4 -11.6,2 z"
       clip-path="url(#b)"
       id="path3833"
       inkscape:connector-curvature="0"
       style="fill:#38434f" />
    <path
       class="st57"
       d="m 471.2,854 c 2.2,3.4 1.1,6.7 1.1,6.7"
       clip-path="url(#b)"
       stroke-miterlimit="10"
       id="path3835"
       inkscape:connector-curvature="0"
       style="fill:none;stroke:#000000;stroke-linecap:round;stroke-linejoin:round;stroke-miterlimit:10" />
    <path
       d="m 489.6,967.9 c 34.6,23.5 68.7,8.7 80.2,-2.4 11.4,-11.1 20.8,-28.5 20,-45.9 -0.8,-17.4 -8.5,-32.9 -19.5,-42.8 -10.7,-9.6 -12.4,-8.7 -13.2,-7.7 -0.8,1 -1.4,1.1 5,12.2 6.4,11.1 13.4,24.6 9.5,40.2 -3.9,15.6 -15.6,29.9 -29.6,34 -14,4 -21.6,-1.4 -26.1,-3.2 0,0 1,4 -3.4,4.3 -4.3,0.3 -11.1,-2.9 -11.1,-2.9 0,0 2.7,3 0.1,5 -2.6,2 -5.9,-0.9 -5.9,-0.9 0,0 2.5,2.2 1.5,3.3 -1,1.1 -2.3,0.8 -4.2,-0.6 0,0 3.2,3.6 1,5.5 -2.2,1.9 -4.3,1.9 -4.3,1.9 z"
       clip-path="url(#b)"
       stroke-miterlimit="10"
       id="path3837"
       inkscape:connector-curvature="0"
       style="fill:#b3becd;stroke:#000000;stroke-width:1.60000002;stroke-linecap:round;stroke-linejoin:round;stroke-miterlimit:10" />
    <path
       d="m 528.6,979.9 c -13.1,0 -25.8,-3.9 -37.6,-11.7 0.9,-0.2 2.1,-0.7 3.3,-1.8 1.4,-1.3 1,-3 0.3,-4.3 0.4,0.1 0.8,0.2 1.1,0.2 0.7,0 1.3,-0.3 1.8,-0.8 0.3,-0.3 0.4,-0.6 0.4,-1 0,-0.3 -0.1,-0.6 -0.2,-0.9 0.6,0.2 1.2,0.4 1.9,0.4 0.9,0 1.7,-0.3 2.4,-0.8 0.3,-0.2 0.5,-0.5 0.7,-0.8 12.6,6.2 22.6,9.1 31.5,9.1 7.8,0 14.7,-2.3 21.1,-6.9 16.8,-12.3 21.3,-21.3 24.6,-27.9 l 0.3,-0.6 c 2.3,-4.5 4.2,-6.5 6.4,-6.5 0.9,0 1.7,0.3 2.7,0.9 -1.4,13.6 -8.7,28 -19.6,38.6 -7.9,7.4 -23.4,14.8 -41.1,14.8 z"
       clip-path="url(#b)"
       id="path3839"
       inkscape:connector-curvature="0"
       style="fill:#92a1b5" />
    <path
       class="st57"
       d="m 489.6,967.9 c -3.9,0.1 -6.7,-0.9 -6.7,-0.9"
       clip-path="url(#b)"
       stroke-miterlimit="10"
       id="path3841"
       inkscape:connector-curvature="0"
       style="fill:none;stroke:#000000;stroke-linecap:round;stroke-linejoin:round;stroke-miterlimit:10" />
    <path
       d="m 484,908.3 c -2.2,0.9 -2.1,3.2 0.1,6.7 2.1,3.5 4.5,7.9 5.9,10.3 1.4,2.4 2.6,3.5 4,2.8 1.4,-0.6 1.8,-2 0.4,-4.9 -1.4,-2.9 -5.8,-11 -7.2,-12.7 -1.6,-1.7 -2.4,-2.5 -3.2,-2.2 z"
       clip-path="url(#b)"
       stroke-miterlimit="10"
       id="path3843"
       inkscape:connector-curvature="0"
       style="fill:#38434f;stroke:#000000;stroke-width:1.5;stroke-linecap:round;stroke-linejoin:round;stroke-miterlimit:10" />
    <path
       class="st57"
       d="m 525.9,907.8 c 2.5,-3.7 4.8,-5.2 4.8,-5.2 m 3.8,11.9 c 1.5,-3.1 3.7,-5.6 3.7,-5.6 m 11.9,13.3 c 1,-3.9 2.7,-5.6 2.7,-5.6 m 10.7,9 c 0.6,-4.6 0.9,-6.6 0.9,-6.6"
       clip-path="url(#b)"
       stroke-miterlimit="10"
       id="path3845"
       inkscape:connector-curvature="0"
       style="fill:none;stroke:#000000;stroke-linecap:round;stroke-linejoin:round;stroke-miterlimit:10" />
    <g
       class="st53"
       clip-path="url(#b)"
       id="g3853">
      <path
         class="st49"
         d="m 504.9,862.2 c 0.8,-0.4 1.5,-0.8 2.2,-1.1"
         id="path3847"
         inkscape:connector-curvature="0"
         style="fill:none;stroke:#e3e5e5;stroke-width:3;stroke-linecap:round;stroke-linejoin:round" />
      <path
         d="m 519.8,856.2 c 13.6,-3.5 22.1,0.5 28.2,3.3 5.3,2.4 11.6,4.7 17.6,5.3"
         id="path3849"
         inkscape:connector-curvature="0"
         style="fill:none;stroke:#e3e5e5;stroke-width:3;stroke-linecap:round;stroke-linejoin:round;stroke-dasharray:4.5286, 13.5857" />
      <path
         class="st49"
         d="m 572.4,864.5 c 0.8,-0.2 1.6,-0.4 2.4,-0.7"
         id="path3851"
         inkscape:connector-curvature="0"
         style="fill:none;stroke:#e3e5e5;stroke-width:3;stroke-linecap:round;stroke-linejoin:round" />
    </g>
    <g
       class="st53"
       clip-path="url(#b)"
       id="g3857">
      <path
         d="m 491.2,946.7 c -4.1,1.1 -6.1,1.8 -10,3.5 -2.1,0.9 -4.6,0.1 -5.6,-1.9 -1,-2 0,-4.6 2.3,-5.6 4.3,-1.9 6.6,-2.7 11.2,-3.9 2.4,-0.6 4.8,0.8 5.3,2.9 0.4,2.2 -1,4.4 -3.2,5 z"
         id="path3855"
         inkscape:connector-curvature="0"
         style="fill:#505762" />
    </g>
    <path
       class="st57"
       d="M 515.8,952.3 C 515.6,950 514.1,949 514.1,949"
       clip-path="url(#b)"
       stroke-miterlimit="10"
       id="path3859"
       inkscape:connector-curvature="0"
       style="fill:none;stroke:#000000;stroke-linecap:round;stroke-linejoin:round;stroke-miterlimit:10" />
    <g
       class="st53"
       clip-path="url(#b)"
       id="g3863">
      <path
         d="m 454.5,887.5 c -3.5,0.7 -7.1,1.3 -10.6,1.7 -3.6,0.4 -7.2,0.8 -10.8,0.6 -0.3,0 -0.5,-0.2 -0.5,-0.5 0,-0.3 0.2,-0.5 0.5,-0.5 3.5,0.2 7.1,-0.1 10.6,-0.4 3.5,-0.4 7.1,-0.9 10.6,-1.6 0.2,0 0.4,0.1 0.4,0.3 0.1,0.2 0,0.4 -0.2,0.4 z"
         id="path3861"
         inkscape:connector-curvature="0" />
    </g>
    <g
       class="st53"
       clip-path="url(#b)"
       id="g3867">
      <path
         d="m 417.2,891.8 c -2.2,-1.6 -4.3,-3.6 -5.4,-6.2 l -0.4,-1 -0.2,-1 -0.1,-0.5 v -0.5 c 0,-0.4 -0.1,-0.7 -0.1,-1.1 0,-1.4 0.2,-2.8 0.7,-4.1 0.9,-2.6 2.6,-4.9 4.4,-6.9 1.9,-2 4,-3.6 6.2,-5.2 2.2,-1.6 4.6,-2.9 7,-4.1 2.4,-1.2 5,-2.2 7.6,-2.9 5.2,-1.5 10.7,-1.9 16.1,-1.4 l -0.6,0.5 c -0.2,-1.3 -0.7,-2.7 -1.4,-3.8 -0.4,-0.6 -0.8,-1.1 -1.4,-1.5 -0.5,-0.5 -1.2,-1 -1.5,-1.9 -0.1,-0.2 -0.1,-0.5 -0.1,-0.7 0.1,-0.2 0.1,-0.5 0.2,-0.7 0.2,-0.4 0.6,-0.7 0.9,-0.9 0.7,-0.5 1.4,-0.7 2.2,-0.9 1.5,-0.3 3,-0.4 4.4,-0.4 2.9,0.1 5.9,0.7 8.6,1.8 2.7,1.1 5.3,2.8 7.1,5.3 l -0.9,0.5 c -0.3,-0.7 -0.5,-1.3 -0.5,-2.1 -0.1,-0.7 0,-1.5 0.4,-2.3 0.3,-0.3 0.5,-0.7 1,-0.8 0.2,-0.1 0.4,-0.1 0.6,-0.2 0.2,0 0.4,-0.1 0.6,-0.1 0.7,0 1.4,0.1 2.1,0.2 1.4,0.3 2.6,0.8 3.9,1.4 1.2,0.6 2.4,1.3 3.5,2.1 2.2,1.6 4.1,3.6 5.6,5.9 0.7,1.2 1.4,2.4 1.8,3.7 0.3,0.6 0.4,1.3 0.5,2 0.1,0.3 0.1,0.7 0.1,1 v 1 c -0.1,2.8 -1.3,5.5 -3,7.6 -1.7,2.2 -3.6,4 -5.9,5.6 -2.4,1.4 -4.9,2.3 -7.4,3.2 -2.5,0.8 -5.1,1.5 -7.8,1.9 1.2,-0.5 2.5,-0.9 3.7,-1.4 l 3.7,-1.3 c 2.5,-0.9 5,-1.8 7.2,-3.2 2.1,-1.5 4,-3.3 5.6,-5.4 1.5,-2.1 2.6,-4.5 2.7,-7 0.1,-2.5 -0.8,-5 -2.2,-7.1 -1.4,-2.2 -3.2,-4.1 -5.3,-5.6 -2.1,-1.5 -4.4,-2.8 -6.9,-3.4 -0.6,-0.1 -1.2,-0.2 -1.8,-0.2 -0.6,0 -1,0.1 -1.3,0.5 -0.5,0.8 -0.2,2.3 0.2,3.4 0.1,0.3 0,0.5 -0.3,0.6 -0.2,0.1 -0.4,0 -0.6,-0.2 -1.6,-2.3 -4,-3.8 -6.6,-4.9 -2.6,-1.1 -5.4,-1.7 -8.2,-1.7 -1.4,0 -2.8,0.1 -4.2,0.4 -0.7,0.2 -1.3,0.4 -1.8,0.7 -0.5,0.4 -0.8,0.8 -0.7,1.3 0.1,0.5 0.6,0.9 1.2,1.4 0.6,0.5 1.1,1.1 1.5,1.7 0.9,1.3 1.4,2.7 1.6,4.3 0,0.3 -0.2,0.5 -0.4,0.5 H 453 c -5.3,-0.5 -10.7,-0.1 -15.8,1.4 -2.5,0.7 -5,1.7 -7.4,2.8 -2.4,1.2 -4.7,2.5 -6.8,4.1 -2.2,1.5 -4.3,3.2 -6.1,5.1 -1.8,1.9 -3.4,4.1 -4.2,6.5 -0.4,1.2 -0.6,2.5 -0.7,3.8 0,0.3 0.1,0.6 0.1,1 v 0.5 l 0.1,0.5 0.2,0.9 0.4,0.9 c 1,2.4 2.9,4.3 5,5.8 0.2,0.2 0.3,0.5 0.1,0.7 -0.2,0.2 -0.4,0.3 -0.7,0.1 z"
         id="path3865"
         inkscape:connector-curvature="0" />
    </g>
    <g
       class="st53"
       clip-path="url(#b)"
       id="g3873"
       transform="rotate(4.582332,616.19113,863.57051)">
      <path
         class="st36"
         d="m 615.1,863.2 c 2,1.2 2.3,1.8 2.3,1.8"
         id="path3869"
         inkscape:connector-curvature="0"
         style="fill:#38434f" />
      <path
         d="m 615.1,863 1.2,0.9 c 0.2,0.2 0.4,0.3 0.6,0.5 0.2,0.2 0.3,0.4 0.5,0.6 0,0.1 0,0.2 -0.1,0.2 h -0.2 l -0.5,-0.5 c -0.2,-0.1 -0.4,-0.3 -0.6,-0.4 -0.4,-0.3 -0.8,-0.5 -1.3,-0.7 -0.2,-0.1 -0.2,-0.3 -0.1,-0.5 0.1,-0.2 0.2,-0.2 0.5,-0.1 -0.1,0 -0.1,0 0,0 z"
         id="path3871"
         inkscape:connector-curvature="0" />
    </g>
    <path
       style="fill:url(#linearGradient6410);fill-opacity:1;stroke:#000000;stroke-width:1.43622047;stroke-linecap:butt;stroke-linejoin:miter;stroke-miterlimit:4;stroke-dasharray:none;stroke-opacity:1"
       d="m 628.83637,851.34575 3.37976,0.43728 9.40989,-1.83968 1.60651,-1.44415 10.5712,-2.09658 3.12348,1.54594 -1.54386,3.1793 -11.82035,2.68507 -1.43937,-0.75591 -9.28516,1.76364 -2.77485,2.6192 z"
       id="path4701"
       inkscape:connector-curvature="0"
       sodipodi:nodetypes="cccccccccccc" />
    <path
       style="fill:url(#linearGradient6470);fill-opacity:1;stroke:#5b5b5b;stroke-width:1.07716535;stroke-linecap:butt;stroke-linejoin:miter;stroke-opacity:1;stroke-miterlimit:4;stroke-dasharray:none"
       d="m 657.20814,846.0606 c 3.93575,-6.91719 4.34663,-10.20421 4.13001,-14.02643 -1.16722,-7.47595 -4.25697,-8.07066 -4.44171,-12.77965 0.0993,-3.7551 1.28378,-7.22988 2.96114,-11.53285 -2.98408,3.0566 -5.63264,5.91516 -6.3119,11.29907 -0.16053,7.23397 4.26462,8.64746 4.7534,11.92248 1.03014,4.28655 0.75465,8.68973 -1.09094,15.11738 z"
       id="path4703"
       inkscape:connector-curvature="0"
       sodipodi:nodetypes="ccccccc" />
    <path
       style="fill:url(#linearGradient6440-1);fill-opacity:1;stroke:#000000;stroke-width:1.00157475;stroke-linecap:butt;stroke-linejoin:miter;stroke-miterlimit:4;stroke-dasharray:none;stroke-opacity:0"
       d="m 231.24644,48.902731 -13.73531,2.677643 0.24668,4.054094 14.07763,-2.270394 1.15535,-2.192469 z"
       id="path4697-6"
       inkscape:connector-curvature="0"
       sodipodi:nodetypes="cccccc"
       transform="translate(395.89999,806.04996)" />
    <path
       style="fill:none;stroke:#000000;stroke-width:1.13385827;stroke-linecap:butt;stroke-linejoin:miter;stroke-miterlimit:4;stroke-dasharray:none;stroke-opacity:1"
       d="m 613.37247,862.03741 14.98945,-2.75505 -0.0127,0.80694 -0.96973,0.38913 -12.33027,2.19395 -0.72868,-0.45826 z"
       id="path880"
       inkscape:connector-curvature="0"
       sodipodi:nodetypes="ccccccc" />
  </g>
</svg>
